<?xml version="1.0" standalone="no"?>
<!DOCTYPE svg PUBLIC "-//W3C//DTD SVG 20010904//EN"
 "http://www.w3.org/TR/2001/REC-SVG-20010904/DTD/svg10.dtd">
<svg version="1.0" xmlns="http://www.w3.org/2000/svg"
 width="1000.000000pt" height="1000.000000pt" viewBox="0 0 1000.000000 1000.000000"
 preserveAspectRatio="xMidYMid meet">
<metadata>
Created by potrace 1.14, written by Peter Selinger 2001-2017
</metadata>
<g transform="translate(0.000000,1000.000000) scale(0.100000,-0.100000)"
fill="#000000" stroke="none">
<path d="M4795 9729 c-119 -29 -236 -91 -319 -169 -60 -56 -125 -149 -454
-645 -212 -319 -385 -581 -386 -582 -1 -1 -294 57 -651 129 -629 127 -654 131
-780 132 -152 1 -217 -13 -345 -75 -73 -36 -101 -57 -195 -153 -94 -94 -117
-124 -152 -196 -61 -124 -77 -193 -77 -340 -1 -131 -2 -127 248 -1383 l14 -68
-556 -372 c-357 -239 -581 -395 -625 -437 -117 -109 -180 -219 -219 -379 -17
-72 -19 -107 -15 -216 5 -146 30 -239 93 -353 72 -128 113 -161 738 -591 443
-305 583 -406 580 -419 -2 -9 -61 -307 -131 -662 -124 -623 -128 -649 -127
-770 0 -147 16 -216 75 -337 43 -86 139 -201 235 -280 65 -54 181 -109 269
-128 126 -27 194 -20 631 60 225 42 519 96 654 121 135 24 265 49 290 54 25 5
47 5 50 0 3 -4 169 -257 370 -561 328 -498 374 -563 455 -644 73 -74 106 -99
175 -133 129 -63 237 -85 390 -80 141 6 234 31 347 94 133 74 156 104 579 741
314 474 396 591 411 587 10 -2 313 -58 673 -125 443 -82 687 -123 755 -126
132 -6 222 13 345 73 79 39 109 62 185 138 149 149 213 299 221 521 l5 120
-134 677 -133 677 534 358 c294 197 563 380 599 407 130 99 242 275 284 446
28 109 23 277 -11 385 -41 132 -138 280 -238 363 -42 35 -475 330 -979 666
-130 86 -183 127 -183 140 0 11 43 236 94 500 52 265 111 563 130 663 41 205
45 309 20 431 -36 177 -129 346 -238 434 -102 82 -240 143 -380 167 -137 25
-185 18 -891 -123 -368 -74 -674 -132 -678 -129 -5 3 -55 75 -111 162 -665
1012 -701 1063 -830 1140 -175 105 -409 139 -611 90z m670 -1659 c251 -382
463 -701 470 -709 11 -11 143 11 845 143 458 87 834 156 836 154 2 -2 -67
-379 -152 -838 -89 -479 -152 -841 -147 -848 4 -7 320 -225 702 -485 381 -260
694 -476 694 -482 0 -5 -312 -222 -694 -482 -382 -260 -698 -478 -702 -485 -5
-8 58 -368 147 -848 85 -459 153 -836 151 -838 -2 -2 -377 67 -834 153 -457
86 -835 154 -839 151 -4 -2 -217 -318 -472 -700 -255 -383 -466 -696 -470
-696 -4 0 -220 317 -480 705 -260 388 -476 708 -480 710 -4 3 -382 -70 -839
-162 -457 -91 -833 -164 -835 -162 -2 2 66 380 151 839 98 526 152 840 146
849 -5 7 -182 133 -393 278 -212 146 -511 353 -666 459 -155 106 -291 202
-304 212 l-23 19 369 254 c203 141 516 356 696 480 245 168 327 229 327 244 0
11 -69 391 -153 845 -85 454 -153 827 -151 828 2 2 380 -67 839 -154 460 -86
838 -155 840 -153 1 2 216 322 477 712 260 389 477 706 481 705 4 -2 212 -316
463 -698z"/>
<path d="M4818 6929 c-753 -73 -1396 -589 -1637 -1314 -225 -679 -58 -1436
432 -1951 492 -519 1253 -718 1944 -508 501 152 918 506 1158 985 227 454 264
985 103 1474 -36 110 -138 324 -203 425 -192 301 -462 543 -780 700 -318 157
-671 222 -1017 189z m352 -900 c310 -48 611 -281 761 -589 77 -157 104 -296
96 -487 -6 -152 -29 -248 -91 -379 -61 -128 -116 -205 -215 -304 -264 -262
-617 -363 -967 -275 -408 103 -708 431 -774 848 -19 117 -8 319 24 431 119
422 479 727 901 765 88 8 165 5 265 -10z"/>
</g>
</svg>
